<?xml version="1.0" standalone="no"?>
<!DOCTYPE svg PUBLIC "-//W3C//DTD SVG 20010904//EN"
 "http://www.w3.org/TR/2001/REC-SVG-20010904/DTD/svg10.dtd">
<svg version="1.0" xmlns="http://www.w3.org/2000/svg"
 width="179.000000pt" height="179.000000pt" viewBox="0 0 179.000000 179.000000"
 preserveAspectRatio="xMidYMid meet">
<metadata>
Created by potrace 1.14, written by Peter Selinger 2001-2017
</metadata>
<g transform="translate(0.000000,179.000000) scale(0.100000,-0.100000)"
fill="#000000" stroke="none">
<path d="M1220 1600 c-8 -5 -10 -10 -5 -10 6 0 17 5 25 10 8 5 11 10 5 10 -5
0 -17 -5 -25 -10z"/>
<path d="M1178 1583 c7 -3 16 -2 19 1 4 3 -2 6 -13 5 -11 0 -14 -3 -6 -6z"/>
<path d="M1053 1567 c3 -10 5 -17 3 -17 -2 0 -89 -30 -192 -66 -243 -85 -226
-80 -218 -58 5 16 4 16 -5 4 -10 -13 -12 -13 -21 0 -8 11 -9 8 -4 -12 5 -23 3
-28 -12 -28 -13 0 -15 -3 -7 -8 10 -6 1 -44 -37 -158 -27 -82 -54 -157 -60
-166 -5 -10 -10 -25 -10 -33 0 -21 -16 -19 -53 6 l-32 21 30 -26 c17 -14 35
-26 40 -26 6 0 3 -5 -5 -10 -8 -5 -10 -10 -4 -10 18 0 20 -430 2 -430 -7 -1 2
-7 21 -16 19 -8 103 -60 188 -115 l153 -101 2 -52 2 -51 3 48 c4 52 12 56 51
29 38 -26 52 -34 52 -28 0 2 -16 14 -36 26 -19 13 -32 26 -27 30 11 10 385
140 401 140 8 0 26 -8 40 -18 37 -26 52 -34 52 -29 0 2 -18 16 -40 31 -23 15
-38 31 -35 36 4 6 1 10 -4 10 -7 0 -11 59 -11 178 0 128 3 173 11 162 8 -11 9
-8 4 15 -4 17 -9 41 -10 55 -4 41 -215 669 -227 676 -7 5 -9 1 -5 -9z m54
-192 c41 -126 46 -147 33 -156 -13 -9 -12 -10 2 -6 14 5 25 -18 62 -131 25
-75 46 -144 46 -152 0 -11 -47 -31 -152 -68 -84 -29 -156 -52 -161 -52 -4 0
-7 106 -6 235 1 130 -1 239 -5 242 -3 4 -6 -26 -6 -65 0 -57 -4 -73 -17 -82
-15 -9 -15 -11 -2 -7 15 5 17 -12 18 -163 l2 -168 -32 -11 c-46 -16 -49 -14
-49 20 0 16 -4 28 -8 25 -7 -4 -182 514 -182 540 0 9 363 143 392 143 13 1 28
-33 65 -144z m-385 -302 c48 -147 86 -269 84 -270 -1 -1 -68 42 -149 96 -144
95 -146 98 -119 108 l27 12 -27 -6 -27 -5 55 166 c31 91 59 166 63 166 4 0 46
-120 93 -267z m-61 -204 c82 -55 147 -105 144 -110 -4 -5 1 -9 9 -9 13 0 15
-29 16 -200 0 -110 -2 -200 -5 -200 -3 0 -77 48 -165 107 l-160 106 0 204 c0
111 2 203 5 203 3 0 73 -45 156 -101z m599 -178 c0 -147 -3 -201 -12 -208 -7
-5 -94 -38 -193 -73 -99 -34 -186 -65 -192 -68 -10 -3 -13 35 -13 169 0 116 4
169 10 159 8 -13 10 -12 10 3 0 9 -4 17 -8 17 -5 0 -9 14 -8 32 1 26 7 34 34
45 l34 14 -2 -38 c-2 -21 -2 -47 -1 -58 1 -18 3 -17 14 5 7 14 9 28 4 31 -5 3
-7 19 -5 34 3 27 10 31 158 81 85 29 158 53 163 53 4 1 7 -88 7 -198z"/>
<path d="M996 1375 c-3 -9 -6 -22 -5 -28 0 -7 5 -1 10 12 5 13 8 26 5 28 -2 2
-6 -3 -10 -12z"/>
<path d="M946 1225 c-3 -9 -6 -22 -5 -28 0 -7 5 -1 10 12 5 13 8 26 5 28 -2 2
-6 -3 -10 -12z"/>
<path d="M822 1208 c30 -26 88 -62 88 -55 0 2 -26 21 -57 41 -32 20 -46 27
-31 14z"/>
<path d="M1098 1203 c7 -3 16 -2 19 1 4 3 -2 6 -13 5 -11 0 -14 -3 -6 -6z"/>
<path d="M1050 1190 c-8 -5 -10 -10 -5 -10 6 0 17 5 25 10 8 5 11 10 5 10 -5
0 -17 -5 -25 -10z"/>
<path d="M815 1110 c-13 -6 -15 -9 -5 -9 8 0 22 4 30 9 18 12 2 12 -25 0z"/>
<path d="M760 1090 c-8 -5 -10 -10 -5 -10 6 0 17 5 25 10 8 5 11 10 5 10 -5 0
-17 -5 -25 -10z"/>
<path d="M896 1075 c-3 -9 -6 -22 -5 -28 0 -7 5 -1 10 12 5 13 8 26 5 28 -2 2
-6 -3 -10 -12z"/>
<path d="M866 983 c-6 -14 -5 -15 5 -6 7 7 10 15 7 18 -3 3 -9 -2 -12 -12z"/>
<path d="M725 730 c-13 -6 -15 -9 -5 -9 8 0 22 4 30 9 18 12 2 12 -25 0z"/>
<path d="M670 710 c-8 -5 -10 -10 -5 -10 6 0 17 5 25 10 8 5 11 10 5 10 -5 0
-17 -5 -25 -10z"/>
<path d="M628 693 c7 -3 16 -2 19 1 4 3 -2 6 -13 5 -11 0 -14 -3 -6 -6z"/>
<path d="M780 660 c-8 -5 -10 -10 -5 -10 6 0 17 5 25 10 8 5 11 10 5 10 -5 0
-17 -5 -25 -10z"/>
<path d="M1120 780 c-8 -5 -10 -10 -5 -10 6 0 17 5 25 10 8 5 11 10 5 10 -5 0
-17 -5 -25 -10z"/>
<path d="M1060 760 c-8 -5 -10 -10 -5 -10 6 0 17 5 25 10 8 5 11 10 5 10 -5 0
-17 -5 -25 -10z"/>
<path d="M975 730 c-13 -6 -15 -9 -5 -9 8 0 22 4 30 9 18 12 2 12 -25 0z"/>
<path d="M1065 613 c10 -10 147 -102 175 -118 35 -19 -9 15 -80 62 -86 57
-110 71 -95 56z"/>
<path d="M581 1530 c0 -8 4 -22 9 -30 12 -18 12 -2 0 25 -6 13 -9 15 -9 5z"/>
<path d="M666 1515 c-3 -9 -6 -22 -5 -28 0 -7 5 -1 10 12 5 13 8 26 5 28 -2 2
-6 -3 -10 -12z"/>
<path d="M550 1370 c-8 -5 -10 -10 -5 -10 6 0 17 5 25 10 8 5 11 10 5 10 -5 0
-17 -5 -25 -10z"/>
<path d="M508 1353 c7 -3 16 -2 19 1 4 3 -2 6 -13 5 -11 0 -14 -3 -6 -6z"/>
<path d="M270 1137 c0 -4 20 -18 103 -71 15 -10 27 -16 27 -13 0 4 -20 18
-102 71 -16 10 -28 16 -28 13z"/>
<path d="M428 973 c7 -3 16 -2 19 1 4 3 -2 6 -13 5 -11 0 -14 -3 -6 -6z"/>
<path d="M1400 960 c-8 -5 -10 -10 -5 -10 6 0 17 5 25 10 8 5 11 10 5 10 -5 0
-17 -5 -25 -10z"/>
<path d="M1340 940 c-8 -5 -10 -10 -5 -10 6 0 17 5 25 10 8 5 11 10 5 10 -5 0
-17 -5 -25 -10z"/>
<path d="M1291 897 c2 -1 13 -9 24 -17 19 -14 19 -14 6 3 -7 9 -18 17 -24 17
-6 0 -8 -1 -6 -3z"/>
<path d="M436 845 c-9 -26 -7 -32 5 -12 6 10 9 21 6 23 -2 3 -7 -2 -11 -11z"/>
<path d="M1375 843 c10 -10 177 -122 205 -138 37 -20 -12 17 -95 72 -101 67
-125 81 -110 66z"/>
<path d="M1301 805 c1 -19 18 -51 18 -35 0 8 -4 22 -9 30 -5 8 -9 11 -9 5z"/>
<path d="M364 641 c7 -11 46 -35 46 -28 0 3 -12 12 -26 22 -15 9 -23 12 -20 6z"/>
<path d="M410 530 c-8 -5 -10 -10 -5 -10 6 0 17 5 25 10 8 5 11 10 5 10 -5 0
-17 -5 -25 -10z"/>
<path d="M1410 530 c-8 -5 -10 -10 -5 -10 6 0 17 5 25 10 8 5 11 10 5 10 -5 0
-17 -5 -25 -10z"/>
<path d="M1350 510 c-18 -12 -2 -12 25 0 13 6 15 9 5 9 -8 0 -22 -4 -30 -9z"/>
<path d="M270 480 c-8 -5 -10 -10 -5 -10 6 0 17 5 25 10 8 5 11 10 5 10 -5 0
-17 -5 -25 -10z"/>
<path d="M1459 352 c14 -11 38 -27 55 -37 l31 -17 -24 20 c-14 11 -38 27 -55
37 l-31 17 24 -20z"/>
<path d="M760 300 c-8 -5 -10 -10 -5 -10 6 0 17 5 25 10 8 5 11 10 5 10 -5 0
-17 -5 -25 -10z"/>
<path d="M700 280 c-18 -12 -2 -12 25 0 13 6 15 9 5 9 -8 0 -22 -4 -30 -9z"/>
<path d="M620 250 c-8 -5 -10 -10 -5 -10 6 0 17 5 25 10 8 5 11 10 5 10 -5 0
-17 -5 -25 -10z"/>
<path d="M972 238 c30 -26 88 -62 88 -55 0 2 -26 21 -57 41 -32 20 -46 27 -31
14z"/>
<path d="M560 230 c-8 -5 -10 -10 -5 -10 6 0 17 5 25 10 8 5 11 10 5 10 -5 0
-17 -5 -25 -10z"/>
</g>
</svg>
